# xmcd
#
# Track frame offsets: 
#        150
#        30153
#        74040
#        100623
#        137443
#        161330
#        195920
#        236855
#        278508
#
# Disc length: 3999 seconds
#
# Revision: 0
# Processed by: cddbd v1.5.2PL0 Copyright (c) Steve Scherf et al.
# Submitted via: ExactAudioCopyFreeDBPlugin 1.0
#
DISCID=6a0f9d09
DTITLE=Scorn - Gyral
DYEAR=1995
DGENRE=Ambient
TTITLE0=Six Hours One Week
TTITLE1=Time Went Slow
TTITLE2=Far In Out
TTITLE3=Stairway
TTITLE4=Forever Turning
TTITLE5=Black Box
TTITLE6=Hush
TTITLE7=Trondheim-Gavle
TTITLE8=Dreamspace (Coil - Unstable Sidereal Oneiroscopic Mix)
EXTD=
EXTT0=
EXTT1=
EXTT2=
EXTT3=
EXTT4=
EXTT5=
EXTT6=
EXTT7=
EXTT8=
PLAYORDER=
